<?xml version="1.0" encoding="utf-8"?>
<!-- Generator: Adobe Illustrator 24.2.0, SVG Export Plug-In . SVG Version: 6.00 Build 0)  -->
<svg version="1.1" id="Calque_1" xmlns="http://www.w3.org/2000/svg" xmlns:xlink="http://www.w3.org/1999/xlink" x="0px" y="0px"
	 viewBox="0 0 1024 276.7" style="enable-background:new 0 0 1024 276.7;" xml:space="preserve">
<style type="text/css">
	.st0{fill:#D81F26;}
</style>
<path class="st0" d="M883.2,258.9V0l43.5,0v157L982.9,0l41.1,0v276.7c-14.6-2.2-28.6-4.3-44.1-5.9V119.7l-49.5,144.9
	C914.3,262.4,898.6,261.6,883.2,258.9L883.2,258.9z M798.1,43.2h-76.5V0l119.7,0v255.4l-119.7-9.5v-41.6c25.7,0.8,51.1,3,76.5,4.6
	v-64.3c-16.2-0.8-38.6-0.8-57.8-0.8v-43.2c15.4,0,41.1,0.8,57.8,0.8C798.1,101.3,798.1,43.2,798.1,43.2z M560.8,0l133,0v43.2h-44.9
	v199.4c-14.1-0.5-28.6-0.5-43.2-0.5V43.2h-44.9C560.8,43.2,560.8,0,560.8,0z M454.6,98.4h59.2v43.2h-59.2v100.5h-42.4V0h120.8v43.2
	h-78.4C454.6,43.2,454.6,98.4,454.6,98.4z M341.9,201.9V0l43.2,0v242.7c-39.5,0.8-78.1,3.2-116.8,5.7v-42.7
	C292.4,204.3,317.3,202.4,341.9,201.9L341.9,201.9z M231.9,0l-42.4,0v254.6c14.1-1.6,28.6-2.4,42.4-3.2V0z M0,0l47.3,0l30.3,72.7
	L105.9,0l46.5,0l-50.3,130l55.7,126.8c-15.7,2.2-30.8,3-46.5,5.7l-31.6-73.5l-31.1,80c-16.2,2.7-32.4,5.7-48.6,7.8l54.9-145.1L0,0
	L0,0z"/>
</svg>
